HIERARCHY
ROOT hip
{
	OFFSET 0.000000 0.000000 0.000000 
	CHANNELS 6 Xposition Yposition Zposition Xrotation Zrotation Yrotation
	JOINT abdomen
	{
		OFFSET 0.000000 3.402643 0.000000 
		CHANNELS 3 Xrotation Zrotation Yrotation
		JOINT chest
		{
			OFFSET 0.000000 8.438565 -0.680529 
			CHANNELS 3 Xrotation Zrotation Yrotation
			JOINT neck
			{
				OFFSET 0.000000 10.207942 -0.272212 
				CHANNELS 3 Xrotation Zrotation Yrotation
				JOINT head
				{
					OFFSET 0.000000 3.130431 0.000000 
					CHANNELS 3 Xrotation Zrotation Yrotation
					End Site
					{
						OFFSET 0.000000 3.130435 0.000000 
					}
				}
			}
			JOINT lCollar
			{
				OFFSET 3.470700 6.669187 -0.816635 
				CHANNELS 3 Yrotation Zrotation Xrotation
				JOINT lShldr
				{
					OFFSET 3.198488 0.000000 0.000000 
					CHANNELS 3 Zrotation Yrotation Xrotation
					JOINT lForeArm
					{
						OFFSET 10.139888 0.000000 0.000000 
						CHANNELS 3 Yrotation Zrotation Xrotation
						JOINT lHand
						{
							OFFSET 8.370511 0.000000 0.000000 
							CHANNELS 3 Zrotation Yrotation Xrotation
							End Site
							{
								OFFSET 4.083176 0.000000 0.000000 
							}
						}
					}
				}
			}
			JOINT rCollar
			{
				OFFSET -3.470700 6.669187 -0.816635 
				CHANNELS 3 Yrotation Zrotation Xrotation
				JOINT rShldr
				{
					OFFSET -3.198488 0.000000 0.000000 
					CHANNELS 3 Zrotation Yrotation Xrotation
					JOINT rForeArm
					{
						OFFSET -10.139888 0.000000 0.000000 
						CHANNELS 3 Yrotation Zrotation Xrotation
						JOINT rHand
						{
							OFFSET -8.370511 0.000000 0.000000 
							CHANNELS 3 Zrotation Yrotation Xrotation
							End Site
							{
								OFFSET -4.083176 0.000000 0.000000 
							}
						}
					}
				}
			}
		}
	}
	JOINT lThigh
	{
		OFFSET 5.308129 -1.633274 1.361059 
		CHANNELS 3 Xrotation Zrotation Yrotation
		JOINT lShin
		{
			OFFSET -2.041588 -20.007561 0.000000 
			CHANNELS 3 Xrotation Zrotation Yrotation
			JOINT lFoot
			{
				OFFSET 0.000000 -19.190928 -1.224953 
				CHANNELS 3 Xrotation Yrotation Zrotation
				End Site
				{
					OFFSET 0.000000 -2.449906 4.627600 
				}
			}
		}
	}
	JOINT rThigh
	{
		OFFSET -5.308129 -1.633274 1.361059 
		CHANNELS 3 Xrotation Zrotation Yrotation
		JOINT rShin
		{
			OFFSET 2.041588 -20.007561 0.000000 
			CHANNELS 3 Xrotation Zrotation Yrotation
			JOINT rFoot
			{
				OFFSET 0.000000 -19.190928 -1.224953 
				CHANNELS 3 Xrotation Yrotation Zrotation
				End Site
				{
					OFFSET 0.000000 -2.449906 4.627600 
				}
			}
		}
	}
}
MOTION
Frames: 8
Frame Time: 0.011111
26.921618 52.857788 -25.696745 11.608304 -10.195168 5.968226 35.817593 -21.969866 9.807646 -18.467173 -5.806506 5.189830 -12.652840 0.592103 8.175129 37.660336 3.975279 18.955893 2.424333 -4.683778 1.783845 -59.869865 -61.784306 20.709389 -54.298958 8.553214 9.918494 8.524705 12.647240 -16.321667 -2.738486 -1.140572 2.095526 87.934601 69.568489 90.813004 88.135635 -4.122634 33.733292 -8.534408 -12.637552 68.294785 -29.630873 15.203412 -15.839567 31.440861 -5.249808 -5.058865 -17.354345 -2.668562 -3.723317 -18.597242 -4.481991 10.423182 19.316429 5.777670 3.423589 -21.684875 -21.214132 -4.023445 
26.939060 52.879745 -25.700953 11.522065 -10.226152 5.935890 35.794933 -22.044117 9.462543 -18.545210 -5.817815 5.109591 -12.526320 0.929544 8.283802 37.541695 3.559411 19.116964 2.424333 -4.683778 1.783845 -59.856445 -62.360767 20.363556 -54.057228 8.515945 9.819650 8.524705 12.647240 -17.102922 -2.738486 -1.140572 2.095526 87.532173 70.589180 90.042519 88.223167 -4.215082 33.819641 -8.534408 -12.637552 69.115097 -29.453619 15.232353 -15.963393 31.322765 -5.240120 -5.065322 -17.391315 -2.483295 -3.664121 -18.533470 -4.550462 10.442531 19.324551 5.787097 3.405468 -21.219698 -20.924229 -3.770613 
26.957102 52.910118 -25.701254 11.449851 -10.386519 5.894529 35.777245 -22.025726 9.315046 -18.603678 -5.860947 5.075880 -12.652985 1.027621 8.408293 37.530056 3.338473 19.324112 2.424333 -4.683778 1.783845 -59.980305 -62.965084 20.234632 -53.951309 8.496179 9.776994 8.524705 12.647240 -17.542372 -2.738486 -1.140572 2.095526 87.406403 70.386909 89.664246 88.302437 -4.299196 33.886589 -8.534408 -12.637552 68.753761 -29.333620 15.390071 -16.096699 31.173510 -5.255396 -5.007837 -17.408201 -2.394829 -3.637024 -18.443340 -4.472501 10.359620 19.334503 5.786880 3.416036 -20.689026 -20.589956 -3.482577 
26.980860 52.937485 -25.695244 11.315837 -10.422451 5.819759 35.775826 -22.169271 9.135430 -18.526030 -5.682062 5.050856 -12.790486 0.987965 8.534225 37.577805 3.175345 19.498188 2.424333 -4.683778 1.783845 -60.304131 -63.586781 20.320293 -53.962070 8.499562 9.786569 8.524705 12.647240 -18.020887 -2.738486 -1.140572 2.095526 86.900345 70.459831 88.888954 88.389778 -4.390438 33.963478 -8.534408 -12.637552 68.499855 -29.044590 15.457196 -16.094778 30.982357 -5.274571 -4.995306 -17.393154 -2.265857 -3.586007 -18.333948 -4.521239 10.378834 19.354830 5.787123 3.417830 -20.117048 -20.280924 -3.169672 
27.019955 52.957935 -25.690128 11.128818 -10.306724 5.712927 35.810822 -22.410698 8.861510 -18.380407 -5.381858 5.002270 -12.699100 0.749103 8.643763 37.383625 3.080831 19.593367 2.424333 -4.683778 1.783845 -60.787529 -64.226212 20.281319 -53.940556 8.492790 9.767420 8.524705 12.647240 -18.831432 -2.738486 -1.140572 2.095526 86.329605 70.446190 87.938515 88.478554 -4.479894 34.030746 -8.534408 -12.637552 68.411964 -28.578611 15.360080 -16.046167 30.835196 -5.264573 -4.979711 -17.471674 -2.100500 -3.539516 -18.190062 -4.736058 10.455419 19.398705 5.776238 3.420609 -19.656433 -19.938793 -2.922513 
27.052734 52.980793 -25.696444 11.004563 -10.304794 5.584460 35.785130 -22.496075 8.615077 -18.390245 -5.341178 4.954982 -12.615639 0.748676 8.739772 37.302795 2.925926 19.729551 2.424333 -4.683778 1.783845 -61.003494 -64.702484 20.221373 -54.004269 8.506093 9.799028 8.524705 12.647240 -19.378309 -2.738486 -1.140572 2.095526 86.163940 70.068619 87.240303 88.604530 -4.606733 34.137043 -8.534408 -12.637552 68.226425 -28.281002 15.380792 -16.071045 30.684092 -5.284615 -4.952439 -17.528116 -1.883524 -3.462554 -18.121998 -4.824031 10.496290 19.457134 5.785870 3.427350 -19.121138 -19.675573 -2.658451 
27.068676 52.999737 -25.707571 10.933164 -10.375682 5.382989 35.748669 -22.564543 8.393892 -18.584736 -5.606730 4.911030 -12.502206 0.997524 8.808756 37.241306 2.830642 19.920450 2.424333 -4.683778 1.783845 -60.676716 -64.813560 20.501122 -54.404697 8.572787 9.971276 8.524705 12.647240 -19.515026 -2.738486 -1.140572 2.095526 86.350739 69.583450 86.555588 88.735519 -4.730071 34.243530 -8.534408 -12.637552 68.011574 -28.096548 15.525168 -16.002642 30.534370 -5.288982 -4.949268 -17.530758 -1.798128 -3.447789 -18.140900 -4.774934 10.568712 19.520094 5.777267 3.450747 -18.576681 -19.437662 -2.396964 
27.107470 53.027103 -25.725315 10.856834 -10.365738 5.278310 35.786747 -22.637335 8.076031 -18.682293 -5.646456 4.851685 -12.458191 1.067468 8.881431 37.148533 2.748136 20.056520 2.424333 -4.683778 1.783845 -60.597515 -64.882813 20.851591 -54.879959 8.649950 10.166056 8.524705 12.647240 -19.817762 -2.738486 -1.140572 2.095526 86.171074 69.255348 85.534607 88.864212 -4.853446 34.340607 -8.534408 -12.637552 67.982277 -27.872808 15.535044 -15.951607 30.394369 -5.298656 -4.929801 -17.508320 -1.683575 -3.415292 -18.142120 -4.892260 10.571025 19.632463 5.776125 3.461156 -18.299482 -18.912502 -2.187133 
